<svg xmlns="http://www.w3.org/2000/svg" viewBox="129 145 880 849" font-family="Helvetica,Arial,sans-serif">
<defs><marker id="ah" markerUnits="userSpaceOnUse" markerWidth="11" markerHeight="11" refX="8" refY="4" orient="auto"><path d="M0,0 L9,4 L0,8 Z" fill="#4f8a6b"/></marker></defs>
<path d="M684.0,215.3 L691.6,208.9 L699.7,202.9 L708.0,197.3 L716.6,192.3 L725.5,187.7 L734.7,183.7 L744.1,180.2 L753.7,177.3 L763.4,174.9 L773.2,173.1 L783.1,171.8 L793.1,171.1 L803.1,171.0 L813.1,171.5 L823.1,172.5 L832.9,174.1 L842.7,176.3 L852.3,179.1 L861.8,182.3 L871.0,186.2 L880.0,190.5 L888.8,195.4 L897.3,200.7 L905.4,206.5 L913.2,212.8 L920.6,219.6 L927.6,226.7 L934.2,234.2 L940.3,242.1 L946.0,250.4 L951.2,258.9 L955.9,267.7 L960.1,276.8 L963.7,286.1 L966.9,295.7 L969.4,305.3 L971.4,315.1 L972.9,325.0 L973.7,335.0 L974.0,345.0 L973.7,355.0 L972.9,365.0 L971.4,374.9 L969.4,384.7 L966.9,394.3 L963.7,403.9 L960.1,413.2 L955.9,422.3 L951.2,431.1 L946.0,439.6 L940.3,447.9 L934.2,455.8 L927.6,463.3 L920.6,470.4 L913.2,477.2 L905.4,483.5 L897.3,489.3 L888.8,494.6 L880.0,499.5 L871.0,503.8 L861.8,507.7 L852.3,510.9 L842.7,513.7 L832.9,515.9 L823.1,517.5 L813.1,518.5 L803.1,519.0 L793.1,518.9 L783.1,518.2 L773.2,516.9 L763.4,515.1 L753.7,512.7 L744.1,509.8 L734.7,506.3 L725.5,502.3 L716.6,497.7 L708.0,492.7 L699.7,487.1 L691.6,481.1 L684.0,474.7" fill="none" stroke="#e08a3c" stroke-width="1.8"/>
<line x1="539.0" y1="345.0" x2="684.0" y2="215.3" stroke="#e08a3c" stroke-width="1.8"/>
<line x1="539.0" y1="345.0" x2="684.0" y2="474.7" stroke="#e08a3c" stroke-width="1.8"/>
<path d="M937.9,704.0 L942.9,711.6 L947.5,719.6 L951.7,727.7 L955.4,736.1 L958.6,744.6 L961.4,753.3 L963.7,762.2 L965.5,771.2 L966.8,780.2 L967.7,789.3 L968.0,798.5 L967.8,807.6 L967.2,816.8 L966.0,825.8 L964.3,834.8 L962.2,843.7 L959.6,852.5 L956.5,861.1 L952.9,869.5 L948.9,877.8 L944.5,885.8 L939.6,893.5 L934.3,901.0 L928.6,908.1 L922.5,915.0 L916.1,921.5 L909.3,927.6 L902.2,933.4 L894.8,938.7 L887.1,943.7 L879.1,948.2 L870.9,952.3 L862.5,955.9 L853.9,959.1 L845.2,961.8 L836.3,964.0 L827.3,965.8 L818.3,967.0 L809.1,967.8 L800.0,968.0 L790.9,967.8 L781.7,967.0 L772.7,965.8 L763.7,964.0 L754.8,961.8 L746.1,959.1 L737.5,955.9 L729.1,952.3 L720.9,948.2 L712.9,943.7 L705.2,938.7 L697.8,933.4 L690.7,927.6 L683.9,921.5 L677.5,915.0 L671.4,908.1 L665.7,901.0 L660.4,893.5 L655.5,885.8 L651.1,877.8 L647.1,869.5 L643.5,861.1 L640.4,852.5 L637.8,843.7 L635.7,834.8 L634.0,825.8 L632.8,816.8 L632.2,807.6 L632.0,798.5 L632.3,789.3 L633.2,780.2 L634.5,771.2 L636.3,762.2 L638.6,753.3 L641.4,744.6 L644.6,736.1 L648.3,727.7 L652.5,719.6 L657.1,711.6 L662.1,704.0" fill="none" stroke="#e08a3c" stroke-width="1.8"/>
<line x1="800.0" y1="506.0" x2="937.9" y2="704.0" stroke="#e08a3c" stroke-width="1.8"/>
<line x1="800.0" y1="506.0" x2="662.1" y2="704.0" stroke="#e08a3c" stroke-width="1.8"/>
<path d="M447.9,925.1 L440.7,930.7 L433.2,935.9 L425.3,940.7 L417.3,945.0 L409.0,948.8 L400.5,952.2 L391.8,955.1 L383.0,957.5 L374.0,959.4 L365.0,960.8 L355.9,961.6 L346.7,962.0 L337.6,961.8 L328.5,961.2 L319.4,960.0 L310.4,958.3 L301.5,956.1 L292.8,953.4 L284.2,950.2 L275.8,946.5 L267.7,942.3 L259.8,937.8 L252.1,932.7 L244.8,927.3 L237.7,921.4 L231.1,915.2 L224.7,908.5 L218.8,901.6 L213.3,894.3 L208.2,886.7 L203.5,878.8 L199.3,870.7 L195.5,862.4 L192.2,853.9 L189.4,845.1 L187.1,836.3 L185.3,827.3 L184.0,818.3 L183.3,809.1 L183.0,800.0 L183.3,790.9 L184.0,781.7 L185.3,772.7 L187.1,763.7 L189.4,754.9 L192.2,746.1 L195.5,737.6 L199.3,729.3 L203.5,721.2 L208.2,713.3 L213.3,705.7 L218.8,698.4 L224.7,691.5 L231.1,684.8 L237.7,678.6 L244.8,672.7 L252.1,667.3 L259.8,662.2 L267.7,657.7 L275.8,653.5 L284.2,649.8 L292.8,646.6 L301.5,643.9 L310.4,641.7 L319.4,640.0 L328.5,638.8 L337.6,638.2 L346.7,638.0 L355.9,638.4 L365.0,639.2 L374.0,640.6 L383.0,642.5 L391.8,644.9 L400.5,647.8 L409.0,651.2 L417.3,655.0 L425.3,659.3 L433.2,664.1 L440.7,669.3 L447.9,674.9" fill="none" stroke="#e08a3c" stroke-width="1.8"/>
<line x1="600.0" y1="800.0" x2="447.9" y2="925.1" stroke="#e08a3c" stroke-width="1.8"/>
<line x1="600.0" y1="800.0" x2="447.9" y2="674.9" stroke="#e08a3c" stroke-width="1.8"/>
<line x1="238.0" y1="324.0" x2="324.0" y2="238.0" stroke="#4f8a6b" stroke-width="2.2" marker-end="url(#ah)"/>
<line x1="366.0" y1="238.0" x2="452.0" y2="324.0" stroke="#4f8a6b" stroke-width="2.2" marker-end="url(#ah)"/>
<line x1="452.0" y1="366.0" x2="366.0" y2="452.0" stroke="#4f8a6b" stroke-width="2.2" marker-end="url(#ah)"/>
<line x1="324.0" y1="452.0" x2="238.0" y2="366.0" stroke="#4f8a6b" stroke-width="2.2" marker-end="url(#ah)"/>
<line x1="715.1" y1="254.0" x2="763.6" y2="226.0" stroke="#4f8a6b" stroke-width="2.2" marker-end="url(#ah)"/>
<line x1="836.4" y1="226.0" x2="884.9" y2="254.0" stroke="#4f8a6b" stroke-width="2.2" marker-end="url(#ah)"/>
<line x1="921.2" y1="296.0" x2="921.2" y2="394.0" stroke="#4f8a6b" stroke-width="2.2" marker-end="url(#ah)"/>
<line x1="884.9" y1="436.0" x2="836.4" y2="464.0" stroke="#4f8a6b" stroke-width="2.2" marker-end="url(#ah)"/>
<line x1="763.6" y1="464.0" x2="715.1" y2="436.0" stroke="#4f8a6b" stroke-width="2.2" marker-end="url(#ah)"/>
<line x1="678.8" y1="394.0" x2="678.8" y2="296.0" stroke="#4f8a6b" stroke-width="2.2" marker-end="url(#ah)"/>
<line x1="843.8" y1="899.8" x2="823.2" y2="906.4" stroke="#4f8a6b" stroke-width="2.2" marker-end="url(#ah)"/>
<line x1="743.3" y1="906.4" x2="681.3" y2="821.0" stroke="#4f8a6b" stroke-width="2.2" marker-end="url(#ah)"/>
<line x1="681.3" y1="779.0" x2="743.3" y2="693.6" stroke="#4f8a6b" stroke-width="2.2" marker-end="url(#ah)"/>
<line x1="823.2" y1="693.6" x2="843.8" y2="700.2" stroke="#4f8a6b" stroke-width="2.2" marker-end="url(#ah)"/>
<line x1="908.4" y1="742.2" x2="908.4" y2="857.8" stroke="#4f8a6b" stroke-width="2.2" marker-end="url(#ah)"/>
<line x1="366.0" y1="693.0" x2="452.0" y2="779.0" stroke="#4f8a6b" stroke-width="2.2" marker-end="url(#ah)"/>
<line x1="452.0" y1="821.0" x2="366.0" y2="907.0" stroke="#4f8a6b" stroke-width="2.2" marker-end="url(#ah)"/>
<line x1="324.0" y1="907.0" x2="238.0" y2="821.0" stroke="#4f8a6b" stroke-width="2.2" marker-end="url(#ah)"/>
<line x1="238.0" y1="779.0" x2="324.0" y2="693.0" stroke="#4f8a6b" stroke-width="2.2" marker-end="url(#ah)"/>
<text x="345" y="338" fill="#555" font-size="15" font-weight="bold" text-anchor="middle">BUSINESS</text>
<text x="345" y="355" fill="#555" font-size="15" font-weight="bold" text-anchor="middle">CYCLE</text>
<text x="800" y="338" fill="#555" font-size="15" font-weight="bold" text-anchor="middle">PLANNING</text>
<text x="800" y="355" fill="#555" font-size="15" font-weight="bold" text-anchor="middle">CYCLE</text>
<text x="800" y="793" fill="#555" font-size="15" font-weight="bold" text-anchor="middle">RELEASE</text>
<text x="800" y="810" fill="#555" font-size="15" font-weight="bold" text-anchor="middle">CYCLE</text>
<text x="345" y="793" fill="#555" font-size="15" font-weight="bold" text-anchor="middle">SPRINT</text>
<text x="345" y="810" fill="#555" font-size="15" font-weight="bold" text-anchor="middle">CYCLE</text>
<rect x="155.0" y="328.0" width="124" height="34" rx="8" fill="#4f8a6b"/>
<text x="217.0" y="349.0" fill="white" font-size="11" text-anchor="middle">1 Identify a Need</text>
<rect x="283.0" y="200.0" width="124" height="34" rx="8" fill="#4f8a6b"/>
<text x="345.0" y="221.0" fill="white" font-size="11" text-anchor="middle">2 Concept a Solution</text>
<rect x="411.0" y="328.0" width="124" height="34" rx="8" fill="#e08a3c"/>
<text x="473.0" y="349.0" fill="white" font-size="11" text-anchor="middle">3 Build Solution</text>
<rect x="283.0" y="456.0" width="124" height="34" rx="8" fill="#4f8a6b"/>
<text x="345.0" y="477.0" fill="white" font-size="11" text-anchor="middle">4 Measure Feedback</text>
<rect x="616.8" y="258.0" width="124" height="34" rx="8" fill="#4f8a6b"/>
<text x="678.8" y="279.0" fill="white" font-size="11" text-anchor="middle">1 Understand Personas</text>
<rect x="738.0" y="188.0" width="124" height="34" rx="8" fill="#4f8a6b"/>
<text x="800.0" y="209.0" fill="white" font-size="11" text-anchor="middle">2 Define Scenarios</text>
<rect x="859.2" y="258.0" width="124" height="34" rx="8" fill="#4f8a6b"/>
<text x="921.2" y="279.0" fill="white" font-size="11" text-anchor="middle">3 Produce Storyboards</text>
<rect x="859.2" y="398.0" width="124" height="34" rx="8" fill="#4f8a6b"/>
<text x="921.2" y="419.0" fill="white" font-size="11" text-anchor="middle">4 Build Backlog</text>
<rect x="738.0" y="468.0" width="124" height="34" rx="8" fill="#e08a3c"/>
<text x="800.0" y="489.0" fill="white" font-size="11" text-anchor="middle">5 Create a Release</text>
<rect x="616.8" y="398.0" width="124" height="34" rx="8" fill="#4f8a6b"/>
<text x="678.8" y="419.0" fill="white" font-size="11" text-anchor="middle">6 Measure Feedback</text>
<rect x="846.4" y="861.8" width="124" height="34" rx="8" fill="#4f8a6b"/>
<text x="908.4" y="882.8" fill="white" font-size="11" text-anchor="middle">1 Define Goals</text>
<rect x="696.6" y="910.4" width="124" height="34" rx="8" fill="#4f8a6b"/>
<text x="758.6" y="931.4" fill="white" font-size="11" text-anchor="middle">2 Select Work</text>
<rect x="604.0" y="783.0" width="124" height="34" rx="8" fill="#e08a3c"/>
<text x="666.0" y="804.0" fill="white" font-size="11" text-anchor="middle">3 Execute Sprints</text>
<rect x="696.6" y="655.6" width="124" height="34" rx="8" fill="#4f8a6b"/>
<text x="758.6" y="676.6" fill="white" font-size="11" text-anchor="middle">4 Release Software</text>
<rect x="846.4" y="704.2" width="124" height="34" rx="8" fill="#4f8a6b"/>
<text x="908.4" y="725.2" fill="white" font-size="11" text-anchor="middle">5 Measure Feedback</text>
<rect x="283.0" y="655.0" width="124" height="34" rx="8" fill="#4f8a6b"/>
<text x="345.0" y="676.0" fill="white" font-size="11" text-anchor="middle">1 Select Stories</text>
<rect x="411.0" y="783.0" width="124" height="34" rx="8" fill="#4f8a6b"/>
<text x="473.0" y="804.0" fill="white" font-size="11" text-anchor="middle">2 Develop Stories</text>
<rect x="283.0" y="911.0" width="124" height="34" rx="8" fill="#4f8a6b"/>
<text x="345.0" y="932.0" fill="white" font-size="11" text-anchor="middle">3 Review Work</text>
<rect x="155.0" y="783.0" width="124" height="34" rx="8" fill="#4f8a6b"/>
<text x="217.0" y="804.0" fill="white" font-size="11" text-anchor="middle">4 Team Feedback</text>
</svg>